<svg xmlns="http://www.w3.org/2000/svg" width="245" height="286" fill="none" viewBox="0 0 245 286"><path stroke="#fff" stroke-width="5" d="M127.373 14.6533V40.7387C127.373 42.264 125.735 43.2177 124.402 42.4767L114.282 36.8508C109.689 34.7297 107.842 37.4166 106.406 38.2389C106.324 38.2862 106.242 38.3335 106.164 38.3877L37.5482 85.9764C30.2749 91.7987 32.4569 99.0766 37.9119 103.079L45.5488 107.81C53.5495 112.905 64.0958 111.449 72.8237 105.627C81.483 99.8502 176.053 29.6002 177.542 28.4944C177.588 28.4601 177.585 28.4654 177.634 28.4353C181.911 25.8181 184.468 25.9631 189.197 28.4812L234.655 54.3177C241.564 58.6844 242.28 63.8103 241.928 72.1484V184.955C242.256 192.367 241.245 195.651 237.2 199.875L152.103 279.568C144.466 287.573 134.647 280.296 135.374 270.834V146.383L135.377 146.056C135.443 138.73 135.48 134.632 142.647 127.46C149.921 120.182 204.834 81.2457 209.925 75.4235C215.017 69.6012 215.234 62.3155 209.925 57.9566C205.003 53.7392 201.44 52.3244 194.652 50.3148C186.106 47.9036 181.879 48.1385 175.741 52.4982L99.0076 112.905C95.0073 115.816 88.0977 122.73 88.825 140.56V236.628C87.0067 251.548 80.4321 254.673 67.3687 256.279C46.4947 256.67 35.1083 254.111 15.8571 241.444C15.7726 241.388 15.6902 241.325 15.6152 241.257C8.19241 234.531 3 227.443 3 210.064V99.0766C3.79345 84.9547 7.36046 72.5246 16.079 66.3353C16.0876 66.3292 16.084 66.3316 16.0926 66.3257C16.3755 66.1319 102.657 7.00615 110.645 3.73647C118.646 0.461416 127.373 8.83096 127.373 14.6533Z"/></svg>